<svg xmlns="http://www.w3.org/2000/svg" viewBox="1303 -106 314.493 359.419">
  <defs>
    <style>
      .cls-1 {
        fill: #fff;
      }
    </style>
  </defs>
  <path id="bell-regular" class="cls-1" d="M308.447,254.324c-13.562-14.573-38.939-36.5-38.939-108.31,0-54.545-38.244-98.208-89.813-108.921V22.464a22.45,22.45,0,1,0-44.9,0V37.093C83.228,47.806,44.983,91.469,44.983,146.014c0,71.814-25.377,93.737-38.939,108.31A21.933,21.933,0,0,0,0,269.564a22.484,22.484,0,0,0,22.534,22.464H291.958a22.479,22.479,0,0,0,22.534-22.464,21.921,21.921,0,0,0-6.044-15.24ZM47.405,258.332c14.9-19.635,31.182-52.179,31.26-111.911,0-.14-.042-.267-.042-.407a78.623,78.623,0,0,1,157.246,0c0,.14-.042.267-.042.407.077,59.739,16.363,92.284,31.26,111.911Zm109.84,101.087a44.919,44.919,0,0,0,44.906-44.927H112.339A44.92,44.92,0,0,0,157.246,359.419Z" transform="translate(1303.001 -106)"/>
</svg>
